<svg xmlns="http://www.w3.org/2000/svg" width="28.741" height="33.754" viewBox="0 0 28.741 33.754"><g transform="translate(-38.02)"><path d="M69.183,7.556,56.471.222a1.658,1.658,0,0,0-1.658,0l-12.7,7.334a1.657,1.657,0,0,0-.61.613L54.813,20.194a1.658,1.658,0,0,0,1.658,0l13.32-12.03a1.657,1.657,0,0,0-.608-.608Z" transform="translate(-3.252 0)" fill="#b3e59f"/><path d="M102.885,43.049l.909-.752-5.67-3.274,4.236-2.446-1.106-.638-4.235,2.445-3.682-2.126,4.234-2.445-1.106-.638L92.23,35.62l-4.237-2.446-1.106.638,4.237,2.446-3.682,2.126-4.237-2.447-1.106.638,4.237,2.447L80.666,42.3l.908.752,5.869-3.388,3.682,2.126-5.537,3.2a.553.553,0,0,0,.553.958l6.089-3.516L98.949,46.3l.909-.752-6.522-3.766,3.682-2.126Zm-10.655-1.9-3.682-2.126L92.23,36.9l3.682,2.126Z" transform="translate(-39.835 -30.987)" fill="#95d6a4"/><path d="M232.037,149.427a1.656,1.656,0,0,0,.818-.221l12.712-7.334a1.658,1.658,0,0,0,.83-1.436V124.665a1.657,1.657,0,0,0-.222-.828L232.037,132l-1.7,2.156Z" transform="translate(-179.635 -115.673)" fill="#ffe07d"/><path d="M52.38,149.488a1.656,1.656,0,0,1-.818-.221L38.85,141.934a1.658,1.658,0,0,1-.83-1.436V124.726a1.648,1.648,0,0,1,.23-.824l14.131,8.157Z" transform="translate(0 -115.734)" fill="#ff8086"/><path d="M270.521,167.616l-4.227,2.44v-4.619l4.227-2.44V161.72l-4.227,2.44V158.9l-1.105.638V164.8l-3.685,2.128V161.67l-1.105.638v5.257l-4.237,2.446v1.277l4.237-2.446v4.619l-4.237,2.446v1.277l4.237-2.446v5.253l1.105-.638V174.1l3.685-2.128v5.255l1.105-.638v-5.255l4.227-2.44Zm-5.332,3.079-3.685,2.128V168.2l3.685-2.128Z" transform="translate(-203.76 -148.429)" fill="#ffd064"/><path d="M38.02,168.892l4.227,2.44v5.255l1.105.638v-5.255l3.685,2.128v5.253l1.105.638v-5.253l4.237,2.446v-1.277l-4.237-2.446v-4.619l4.237,2.446V170.01l-4.237-2.446v-5.257l-1.105-.638v5.257L43.352,164.8v-5.256l-1.105-.638v5.256l-4.227-2.44V163l4.227,2.44v4.619l-4.227-2.44Zm5.332-2.817,3.685,2.128v4.619l-3.685-2.128Z" transform="translate(0 -148.428)" fill="#e5646e"/></g></svg>