<svg xmlns="http://www.w3.org/2000/svg" xmlns:xlink="http://www.w3.org/1999/xlink" width="323.624" height="295.896" viewBox="0 0 323.624 295.896"><defs><style>.a,.b{fill:#4baec6;}.a{opacity:0.25;}.c{fill:url(#a);}.d{fill:url(#b);}.e{fill:#484756;}.f{fill:url(#c);}.g{fill:url(#d);}.h{fill:url(#e);}.i{fill:url(#f);}.j{fill:url(#g);}.k{fill:#25233a;}.l{fill:url(#h);}.m{fill:url(#i);}.n{fill:url(#j);}.o{fill:url(#k);}.p{fill:url(#l);}.q{fill:url(#m);}.r{fill:url(#n);}.s{fill:url(#o);}.t{fill:url(#p);}.u{fill:url(#q);}.v{fill:url(#r);}.w{fill:url(#s);}.x{fill:url(#t);}.y{fill:url(#u);}.z{fill:url(#v);}.aa{fill:url(#w);}.ab{fill:url(#x);}.ac{fill:url(#y);}.ad{fill:url(#z);}.ae{fill:url(#aa);}.af{fill:url(#ab);}.ag{fill:url(#ac);}.ah{fill:url(#ad);}.ai{fill:url(#ae);}.aj{fill:url(#af);}.ak{fill:url(#ag);}</style><linearGradient id="a" x1="0.172" y1="-0.136" x2="0.906" y2="1.277" gradientUnits="objectBoundingBox"><stop offset="0" stop-opacity="0"/><stop offset="0.97"/></linearGradient><linearGradient id="b" y1="0.5" x2="1" y2="0.5" gradientUnits="objectBoundingBox"><stop offset="0" stop-color="#ecc4d7"/><stop offset="0.42" stop-color="#efd4d1"/><stop offset="1" stop-color="#f2eac9"/></linearGradient><linearGradient id="c" x1="0.279" y1="0.525" x2="1.299" y2="0.438" xlink:href="#a"/><linearGradient id="d" x1="-0.001" y1="0.501" x2="1" y2="0.501" xlink:href="#a"/><linearGradient id="e" x1="-0.03" y1="0.791" x2="2.443" y2="-0.648" xlink:href="#a"/><linearGradient id="f" x1="0.992" y1="0.321" x2="-0.631" y2="1.093" xlink:href="#a"/><linearGradient id="g" x1="0.483" y1="-0.038" x2="0.533" y2="1.302" xlink:href="#a"/><linearGradient id="h" x1="0.919" y1="0.476" x2="0.121" y2="0.527" gradientUnits="objectBoundingBox"><stop offset="0" stop-color="#fff" stop-opacity="0"/><stop offset="0.84" stop-color="#fff" stop-opacity="0.839"/><stop offset="0.97" stop-color="#fff"/></linearGradient><linearGradient id="i" x1="0.921" y1="0.041" x2="-2.312" y2="3.901" xlink:href="#a"/><linearGradient id="j" x1="0" y1="0.5" x2="1" y2="0.5" xlink:href="#b"/><linearGradient id="k" x1="0" y1="0.501" x2="1.002" y2="0.501" xlink:href="#b"/><linearGradient id="l" x1="-0.001" y1="0.5" x2="1" y2="0.5" xlink:href="#b"/><linearGradient id="m" x1="0.002" y1="0.5" x2="1" y2="0.5" xlink:href="#b"/><linearGradient id="n" x1="0.558" y1="0.823" x2="0.101" y2="-1.012" xlink:href="#a"/><linearGradient id="o" x1="0.393" y1="0.457" x2="1.116" y2="1.211" xlink:href="#a"/><linearGradient id="p" x1="1.061" y1="0.255" x2="-0.271" y2="0.873" xlink:href="#h"/><linearGradient id="q" x1="0.453" y1="0.521" x2="0.629" y2="0.422" xlink:href="#a"/><linearGradient id="r" x1="0.473" y1="0.508" x2="0.621" y2="0.41" xlink:href="#a"/><linearGradient id="s" x1="0.351" y1="0.206" x2="0.882" y2="1.037" xlink:href="#a"/><linearGradient id="t" x1="0.233" y1="0.259" x2="0.983" y2="0.805" xlink:href="#b"/><linearGradient id="u" x1="0.834" y1="0.504" x2="0.126" y2="0.49" xlink:href="#h"/><linearGradient id="v" x1="0.838" y1="0.776" x2="6.603" y2="5.589" xlink:href="#b"/><linearGradient id="w" x1="1.412" y1="0.385" x2="-4.625" y2="1.05" xlink:href="#a"/><linearGradient id="x" x1="-0.109" y1="0.334" x2="4.677" y2="1.297" xlink:href="#a"/><linearGradient id="y" x1="-0.907" y1="0.333" x2="4.93" y2="1.191" xlink:href="#a"/><linearGradient id="z" x1="0.04" y1="1.88" x2="3.656" y2="-7.562" xlink:href="#a"/><linearGradient id="aa" x1="1.335" y1="0.345" x2="-0.736" y2="0.725" xlink:href="#h"/><linearGradient id="ab" x1="1.197" y1="0.278" x2="-0.532" y2="0.831" xlink:href="#h"/><linearGradient id="ac" x1="1.11" y1="0.14" x2="-2.682" y2="2.397" xlink:href="#a"/><linearGradient id="ad" x1="0.935" y1="-0.023" x2="-1.796" y2="3.052" xlink:href="#a"/><linearGradient id="ae" x1="1.259" y1="0.28" x2="-0.63" y2="0.811" xlink:href="#h"/><linearGradient id="af" x1="0.623" y1="-0.193" x2="0.304" y2="1.599" xlink:href="#h"/><linearGradient id="ag" x1="0.443" y1="-0.405" x2="0.566" y2="1.51" xlink:href="#a"/></defs><g transform="translate(-0.014 0.088)"><path class="a" d="M326.747,215.921c-7.084,7.863-16.032,13.936-22.7,22.165-8.866,10.948-13.307,25.213-20.061,37.486a71.037,71.037,0,0,1-5.736,8.9A44.789,44.789,0,0,1,270.4,292.5c-12.8,10.057-30.485,11.12-46.675,9.42-15.77-1.647-31.5-5.5-47.281-4.3l-1.273.1c-7.061.666-14.086,2.374-21.087,3.856-9.211,1.947-18.384,3.512-27.549,1.8a40.2,40.2,0,0,1-27.16-19.327c-6.275-11.03-6.949-24.4-12.191-35.944-3.564-7.855-9.136-14.64-13.06-22.323a60.558,60.558,0,0,1,.24-54.807c5.122-9.772,12.82-17.9,20.421-25.895l22.967-24.15c7.488-7.863,15.2-15.905,25.026-20.51a43.971,43.971,0,0,1,23.753-3.669c6.59.749,11.652,4.575,17.335,6.68a22.847,22.847,0,0,0,3.557,1.041c6.912,1.423,14.385-.524,21.716.517.577.075,1.146.18,1.715.3,8.02,1.692,15.725,4.957,23.019,8.6,13.981,6.942,27.542,15.493,42.893,18.361,12.985,2.419,26.823.659,39.081,5.564,14.318,5.714,24.172,20.338,25.752,35.667S337.073,204.457,326.747,215.921Z" transform="translate(-47.422 -67.368)"/><path class="b" d="M332.815,313.31l-3,1.176s1.82.157,4.665,5.684,10.3,22.794,10,25c0,0,2.756-.12,3.287-1.385C347.784,343.78,340.3,320.057,332.815,313.31Z" transform="translate(-113.262 -121.841)"/><path class="c" d="M332.815,313.31l-3,1.176s1.82.157,4.665,5.684,10.3,22.794,10,25c0,0,2.756-.12,3.287-1.385C347.784,343.78,340.3,320.057,332.815,313.31Z" transform="translate(-113.262 -121.841)"/><path class="d" d="M196.581,215.785s-9.885,15.426-12.625,14.325-2.381-16.527-2.381-16.527L193.459,201.4Z" transform="translate(-76.024 -93.733)"/><path class="e" d="M196.507,223.69s-4.171,12.416-9.023,14.153-8.724,12.58-6.889,15.591l3,4.912,4.006-3.377s-4.119-5.347-1.67-9.091c3.183-4.86,1.573-.359,5.833-5.8s5.369-9.315,5.369-9.315Z" transform="translate(-75.665 -99.331)"/><path class="b" d="M175.909,295.285c-1.026,2.823-1.887,6.155-.255,8.679,1.078,1.67,3,2.561,4.83,3.325a133.1,133.1,0,0,0,24.4,7.488c1.91.4,4.171.659,5.571-.7a6.246,6.246,0,0,0,1.363-2.576l6.058-17.785c4.1-11.981,8.237-24.1,14.5-35.143,1.093-1.932,2.3-4.089,1.775-6.253a5.791,5.791,0,0,0-4.313-3.9c-5.541-1.5-12.266.539-18.032.15-3.19-.217-6.739-.981-9.63.749-3.984,2.366-6.38,8.237-8.731,11.981-3.19,5.122-6.305,10.289-9.166,15.6a136.813,136.813,0,0,0-8.372,18.384Z" transform="translate(-74.312 -105.403)"/><path class="f" d="M232.367,258.621c-6.268,11.038-10.4,23.131-14.5,35.143q-2.291,6.739-4.6,13.479l-1.5,4.291a6.246,6.246,0,0,1-1.363,2.576,3.408,3.408,0,0,1-1.415.809,8.792,8.792,0,0,1-4.156-.112,133.107,133.107,0,0,1-24.4-7.488c-1.835-.749-3.744-1.655-4.83-3.325a5.422,5.422,0,0,1-.824-2.247,13.727,13.727,0,0,1,1.078-6.455,136.813,136.813,0,0,1,8.372-18.346c2.861-5.309,5.991-10.484,9.166-15.6,2.351-3.782,4.748-9.622,8.731-11.981,2.913-1.73,6.44-.966,9.63-.749,5.766.389,12.49-1.617,18.032-.15a5.791,5.791,0,0,1,4.313,3.9C234.666,254.533,233.46,256.689,232.367,258.621Z" transform="translate(-74.3 -105.418)"/><path class="g" d="M210.5,331.883c-1.4,1.355-3.662,1.093-5.571.7-2.284-.464-4.56-1-6.814-1.588a133.415,133.415,0,0,1-17.59-5.931c-.607-.255-1.228-.517-1.812-.831a7.488,7.488,0,0,1-3-2.494,5.422,5.422,0,0,1-.824-2.247l1.033-.509a32.948,32.948,0,0,1,5.759-.344,30.971,30.971,0,0,1,13.591,3.19c.8.419,1.58.846,2.336,1.273A92.61,92.61,0,0,1,210.5,331.883Z" transform="translate(-74.349 -123.176)"/><path class="b" d="M226.175,312.02c.592,1.587,1.348,3.287,2.861,4.066a7.082,7.082,0,0,0,4.036.389,188.963,188.963,0,0,0,22.772-3.669,2.336,2.336,0,0,0,1.108-.472,2.3,2.3,0,0,0,.472-1.655c.217-10.641-.389-21.4,1.812-31.818.876-4.126,2.187-8.17,2.621-12.363a30.44,30.44,0,0,0-6.7-22.24,2.561,2.561,0,0,0-1.176-.936,2.846,2.846,0,0,0-1.88.412c-6.043,2.808-12.827,2.793-19.35,2.726-4.673-.052-10.581-1.288-11,4.7-.891,12.648-1.55,25.895-.4,38.557a86.549,86.549,0,0,0,4.83,22.308Z" transform="translate(-85.863 -104.256)"/><path class="h" d="M261.887,266.5c-.434,4.193-1.745,8.237-2.621,12.363-2.2,10.416-1.6,21.177-1.812,31.818a2.733,2.733,0,0,1-.292,1.423.885.885,0,0,1-.18.232,2.336,2.336,0,0,1-1.108.472,188.965,188.965,0,0,1-22.772,3.669,7.082,7.082,0,0,1-4.036-.389c-1.5-.749-2.246-2.479-2.861-4.066a86.551,86.551,0,0,1-4.83-22.308c-1.146-12.663-.487-25.91.4-38.557.419-5.991,6.328-4.748,11-4.7,6.522.067,13.307.082,19.35-2.726a2.846,2.846,0,0,1,1.88-.412,2.561,2.561,0,0,1,1.176.936,14.64,14.64,0,0,1,.921,1.183A30.47,30.47,0,0,1,261.887,266.5Z" transform="translate(-85.871 -104.256)"/><path class="i" d="M252.34,247.675s1.558,13.9,11.045,14.744L261.82,245.84Z" transform="translate(-93.802 -104.895)"/><path class="j" d="M259.849,332.865c0,.06,0,1.408-2.793,1.924-.292.052-.614.1-.966.127-3.8.352-20.061,3.355-20.061,3.355s-5.309,1.243-5.729-2.112c0,0,2.157-.794,5.384-1.715,5.526-1.58,14.228-3.542,20.645-2.546a15.053,15.053,0,0,1,3.52.966Z" transform="translate(-88.266 -126.442)"/><path class="e" d="M239.916,134.591c-.082.262-.539.112-.562-.165s.217-.494.427-.666a16.055,16.055,0,0,1,11.232-3.392,4.014,4.014,0,0,1,2.164.674,4.546,4.546,0,0,1,1.2,1.8,192.241,192.241,0,0,1,12.648,38.939c.532,2.516,1.3,5.414,3.647,6.44,2.509,1.1,5.519-.749,6.627-3.257s.809-5.377.4-8.08a95.021,95.021,0,0,0-6.163-22.525c-2.232-5.212-5-10.169-7.249-15.321s-4.545-10.948-9.375-13.988-10.813-2.546-16.317-1.5c-4.763.906-10.124,2.778-11.772,7.331-1.333,3.684.442,7.945,3.392,10.484s6.852,3.744,10.686,4.53a8.776,8.776,0,0,0,3.632.195" transform="translate(-87.278 -71.464)"/><path class="k" d="M249.537,123.759c2.321.217,4.763.681,6.485,2.246a11.853,11.853,0,0,1,2.434,3.662c7.046,14.31,11.794,29.624,16.519,44.862.8,2.6,1.6,5.474.517,7.968-1,2.3-3.355,3.677-5.616,4.763a66.922,66.922,0,0,1-12.73,4.605,2.359,2.359,0,0,1-3.13-1.078c-3.632-5-6.036-10.768-8.394-16.474l-15.344-37.03c-.846-2.044-3.212-5.586-3.257-7.818-.052-2.688,2.059-3.1,4.433-3.842A46.023,46.023,0,0,1,249.537,123.759Z" transform="translate(-87.442 -74.178)"/><path class="b" d="M181,155.332a161.054,161.054,0,0,0-6.635,23.663,2.883,2.883,0,0,0,1.76,3.782l7.061,4.441c1.5.944,3.579,1.857,4.9.666.861-.749.914-2.089.891-3.25q-.18-13.232-1.048-26.441c-.142-2.127.981-9.855-1.715-10.581S181.717,153.37,181,155.332Z" transform="translate(-74.166 -80.208)"/><path class="b" d="M205.958,136.551c-4.875.419-10.042,1.108-13.816,4.216a17.065,17.065,0,0,0-3.078,3.407,26.366,26.366,0,0,0-4.763,16.28c.21,4.441,1.543,8.746,2.868,12.992,2.711,8.679,5.422,17.365,8.544,25.91,2.246,6.253,2.314,15.965,6.829,20.862,1.423,1.535,5.616-.449,7.548.374a18.828,18.828,0,0,0,8,1.011,108.49,108.49,0,0,0,21.117-2.763c1.707-.4,5.991-.4,6.814-1.939.524-.951,1.318-1.318,1.318-2.4.045-14.078-3.669-29.5-4.882-43.537-.749-8.379-1.745-17.006-5.871-24.337s-12.079-13.112-20.473-12.139C213.132,134.843,208.938,136.289,205.958,136.551Z" transform="translate(-76.706 -76.899)"/><path class="l" d="M247.338,214.489c0,1.086-.794,1.453-1.318,2.4a2.434,2.434,0,0,1-1.31.944,25.209,25.209,0,0,1-4.755.861h0c-.27.037-.517.082-.749.127a108.492,108.492,0,0,1-21.117,2.763c-2.711.082-14.123.15-15.546-1.385-4.493-4.9-4.545-14.61-6.829-20.862-3.123-8.544-5.833-17.223-8.544-25.91-1.325-4.246-2.658-8.552-2.868-12.992a26.366,26.366,0,0,1,4.763-16.28,17.066,17.066,0,0,1,3.078-3.407,16.19,16.19,0,0,1,5.991-3,42.139,42.139,0,0,1,7.8-1.236c3-.262,7.174-1.722,10.154-2.067a15.956,15.956,0,0,1,3.272-.045h0a18.541,18.541,0,0,1,6.515,1.872,23.214,23.214,0,0,1,5.744,4.014,26.509,26.509,0,0,1,4.935,6.3c4.126,7.331,5.152,15.958,5.871,24.337C243.669,185.007,247.383,200.411,247.338,214.489Z" transform="translate(-76.706 -76.891)"/><path class="m" d="M250.044,214.49c0,1.086-.794,1.453-1.318,2.4a2.434,2.434,0,0,1-1.31.944l-4.755.869h0l-.749.127-3.235-50.3L221.162,155.8s-5.062-7.226-7.593-7.226-10.281-4.95-10.281-4.95c-2.172.21-8.237,19.709-8.237,19.709l2.067-21.574,3.744-4.006,4.388-3.407,13.569.1,3.272-.045h0l4.306-.06,2.246,1.932,3.3,2.883,2.441,1.131a26.509,26.509,0,0,1,4.935,6.3c4.126,7.331,5.152,15.958,5.871,24.337C246.375,185.008,250.089,200.412,250.044,214.49Z" transform="translate(-79.412 -76.892)"/><path class="e" d="M262.021,215.835s8.634-4.493,11.861-11.045l2.389,1.917s-7.578,12.236-13.906,12.236S262.021,215.835,262.021,215.835Z" transform="translate(-95.59 -94.584)"/><path class="k" d="M222.4,138.081c-6.11,9.922-9.285,22.338-6.477,33.645,2.067,8.29,7.81,15.156,13.966,21.08a37.3,37.3,0,0,0,9.053,6.867A15.371,15.371,0,0,0,250,201c1.221-.367,2.606-1.5,2.082-2.636a2.531,2.531,0,0,0-1.258-1.048c-6.1-3.123-12.468-6.417-16.474-11.981-3.04-4.223-4.493-9.383-5.437-14.49-1.662-8.649-2.142-18.039,1.947-25.842,2.044-3.909,5.2-7.346,6.088-11.667.052-.27-8.3-2.486-9.278-2.246C225.045,131.85,223.727,135.916,222.4,138.081Z" transform="translate(-84.396 -76.069)"/><path class="k" d="M183.1,152.8c-3,14.692,2.7,45.619,12.73,48.929.232-1.6-3.8-16.624-4.141-29.242-.666-24.644,8.3-32.634,8.409-34.791.052-1.071-3.677-2.778-8.4.382C186.644,141.459,184.323,147.015,183.1,152.8Z" transform="translate(-76.211 -77.373)"/><path class="n" d="M222.8,167.043a242.465,242.465,0,0,0-.9,30.852c5.736-7.428,6.784-17.343,7.616-26.688a21.32,21.32,0,0,1,5.908,2.187,7.226,7.226,0,0,1,3.579,4.965c.157,1.161,3.3,3.19,3.078,4.328-1.415,7.106-11.891,23.9-14.123,26.044-3.8,3.632-7.541,5.077-11.09,1.206s-4.658-9.36-5.182-14.58a94.464,94.464,0,0,1-.127-17.583c0,.367-2.4-2.621-2.554-3.093a13.934,13.934,0,0,1-.1-5.541c.314-3,.614-6.814,2.336-9.42,1.6-2.419,4.044-3.093,6.8-2.172C222.4,159.008,223.191,162.939,222.8,167.043Z" transform="translate(-82.834 -82.619)"/><path class="o" d="M174.007,194.314c1.153-8.522,3.04-12.932,4.193-21.447.352-2.613.749-5.362,2.359-7.488s4.822-3.212,6.949-1.647c1.573,1.146,2.029,3.265,2.366,5.182a32.9,32.9,0,0,1,.749,8.372,11.027,11.027,0,0,1-3.37,7.488,10.124,10.124,0,0,0-2.112,2,6.051,6.051,0,0,0-.7,2.771c-.674,8.986.794,18.024-.157,26.958-.172,1.64-.749,3.632-2.389,3.916a3.527,3.527,0,0,1-2.733-1.108c-3.37-2.935-5.077-7.413-5.511-11.861a49.482,49.482,0,0,1,.352-13.179" transform="translate(-73.967 -84.085)"/><path class="p" d="M304.807,335.184a2.112,2.112,0,0,1-.749,1.221c-13.531,13.075-28.208,25.715-45.926,32.057-2.119.749-4.493,1.43-6.6.681-2.568-.9-11.712-22.113-13.666-32.544-.112-.592-.2-1.146-.262-1.655h0a11.689,11.689,0,0,1-.082-2.164c5.526-1.58,14.228-3.542,20.645-2.546l.187.666a1.374,1.374,0,0,0,.052.24c.15.666.315,1.325.487,1.984.4,1.58.861,3.145,1.355,4.7h0q.7,2.246,1.565,4.4a2.553,2.553,0,0,0,.944,1.378,2.61,2.61,0,0,0,2.291-.21,177.3,177.3,0,0,0,32.2-17.837,2.247,2.247,0,0,1,1.58-.584c.651.1,1.063.749,1.385,1.34q2.119,3.871,4.253,7.743A2.194,2.194,0,0,1,304.807,335.184Z" transform="translate(-90.076 -124.769)"/><path class="q" d="M198.741,325.347c-.232,1.153-2.823,4.6-3.295,5.661-1.453,3.28-3.8,6.23-5.466,9.45a50.313,50.313,0,0,0-3.744,10.9q-3.295,12.925-5.8,26.022-2.149,11.188-3.744,22.465a41.441,41.441,0,0,1-9.78-3.287,5.047,5.047,0,0,1-1.887-1.325,5.4,5.4,0,0,1-.749-3.355,270.675,270.675,0,0,1,2.516-34.281c1.378-9.465,3.265-18.99,7.009-27.819.494-1.161,1.281-3.3,2.246-5.526a40.294,40.294,0,0,1,2.149-4.336h0c.262-.442.524-.846.794-1.221a30.972,30.972,0,0,1,13.591,3.19c.8.419,1.58.846,2.336,1.273C195.521,323.527,198.741,325.347,198.741,325.347Z" transform="translate(-71.684 -123.192)"/><path class="b" d="M326.43,314.8a1.333,1.333,0,0,1,.951-.225,1.385,1.385,0,0,1,.749.7,131.24,131.24,0,0,1,12.64,27.707c.359,1.131.681,2.464,0,3.415a3.078,3.078,0,0,1-1.7,1.011c-3.8,1.018-7.631-1.258-10.91-3.43l-9.121-6.036c.876.577,1.176-6.432,1.063-6.987-.562-2.763-2.419-4.643-3.467-7.144C314.411,318.634,322.716,316.7,326.43,314.8Z" transform="translate(-109.857 -122.156)"/><path class="b" d="M161.523,420.591c3,2.381,7.331,1.266,10.94.045a83.185,83.185,0,0,1,3.639,14.041,4.493,4.493,0,0,1-.12,2.726,4.4,4.4,0,0,1-2.247,1.82c-9.031,4.291-19.372,4.62-29.369,4.867a4.494,4.494,0,0,1-1.812-.2c-1.984-.8-1.835-3.677-1.063-5.669,2.194-5.676,6.59-8.342,10.117-12.895,1.228-1.587,2.022-3.392,3.422-4.875C157.674,417.663,158.842,418.449,161.523,420.591Z" transform="translate(-65.827 -148.301)"/><path class="r" d="M326.43,314.8a1.333,1.333,0,0,1,.951-.225,1.385,1.385,0,0,1,.749.7,131.24,131.24,0,0,1,12.64,27.707c.359,1.131.681,2.464,0,3.415a3.078,3.078,0,0,1-1.7,1.011c-3.8,1.018-7.631-1.258-10.91-3.43l-9.121-6.036c.876.577,1.176-6.432,1.063-6.987-.562-2.763-2.419-4.643-3.467-7.144C314.411,318.634,322.716,316.7,326.43,314.8Z" transform="translate(-109.857 -122.156)"/><path class="s" d="M175.99,437.4a4.4,4.4,0,0,1-2.246,1.82c-9.031,4.291-19.372,4.62-29.369,4.867a4.494,4.494,0,0,1-1.812-.2c-1.423-.577-1.745-2.246-1.5-3.827a7.824,7.824,0,0,1,.472-1.842c2.194-5.676,6.59-8.342,10.117-12.895,1.228-1.588,2.022-3.392,3.422-4.875,2.636-2.786,3.8-2,6.485.142,3,2.381,7.331,1.266,10.94.045a82.64,82.64,0,0,1,3.467,13.254c.052.262.1.524.142.786a4.493,4.493,0,0,1-.12,2.726Z" transform="translate(-65.834 -148.301)"/><path class="b" d="M140.638,115.791a241.607,241.607,0,0,1-32.784,24.659l-.6.359a3.37,3.37,0,0,1-2.905.494,4.1,4.1,0,0,1-1.827-2.3C95.439,123.594,81.3,112.586,75.61,96.449c10.9-8.245,24.854-14.056,36.82-20.8a5.594,5.594,0,0,1,3.265-1.011,2.09,2.09,0,0,1,.3.052,5.073,5.073,0,0,1,2.673,2.411,304.9,304.9,0,0,1,21.971,38.685Z" transform="translate(-49.412 -61.89)"/><path class="t" d="M141.49,115.813a241.606,241.606,0,0,1-32.784,24.659l-.6.359a2.178,2.178,0,0,1-.374-.12,4.116,4.116,0,0,1-1.827-2.306C98.822,123,84.684,111.994,79,95.894c10.9-8.237,24.854-14.1,36.82-20.8.24-.135.487-.27.749-.389a2.088,2.088,0,0,1,.3.052,5.073,5.073,0,0,1,2.673,2.411,304.9,304.9,0,0,1,21.948,38.64Z" transform="translate(-50.264 -61.912)"/><path class="b" d="M40.708,276.86a.547.547,0,0,1,.861-.651c5.242,5.242,16.654,20.87,16.9,21.357a1.318,1.318,0,0,1-.329,1.7c-2.329,1.385-8.709-8.694-9.825-10.251a111.521,111.521,0,0,1-7.608-12.154Z" transform="translate(-40.63 -112.484)"/><path class="b" d="M68.756,255.922c-.337-.622.472-1.048,3.055,1.565,17.463,17.68,15.613,18.593,13.659,18.871-1.221.187-3-2.748-3.609-3.46C78.955,269.341,69.954,258.146,68.756,255.922Z" transform="translate(-47.673 -107.309)"/><path class="u" d="M40.708,276.86a.547.547,0,0,1,.861-.651c5.242,5.242,16.654,20.87,16.9,21.357a1.318,1.318,0,0,1-.329,1.7c-2.329,1.385-8.709-8.694-9.825-10.251a111.521,111.521,0,0,1-7.608-12.154Z" transform="translate(-40.63 -112.484)"/><path class="v" d="M68.756,255.922c-.337-.622.472-1.048,3.055,1.565,17.463,17.68,15.613,18.593,13.659,18.871-1.221.187-3-2.748-3.609-3.46C78.955,269.341,69.954,258.146,68.756,255.922Z" transform="translate(-47.673 -107.309)"/><path class="b" d="M101.4,289.362c-1.745,2.741-4.456,4.7-7.076,6.62a113.3,113.3,0,0,0-10.147,8.192,32.475,32.475,0,0,1-5.07,4.231,13.224,13.224,0,0,1-10.484,1.333c-2.756-.824-6.485-3.115-7.563-5.991a3.511,3.511,0,0,1-.127-.434c-.644-3,3.617-5.339,5.8-6.867a83.987,83.987,0,0,0,14.557-12.9,9.676,9.676,0,0,1,2.89-2.486,9.165,9.165,0,0,1,3.048-.681l11.817-1.258a3.332,3.332,0,0,1,1.842.15,2.246,2.246,0,0,1,.749.659,3,3,0,0,1,.18.247C103.7,282.847,103.142,286.621,101.4,289.362Z" transform="translate(-45.711 -113.236)"/><path class="w" d="M101.4,289.362c-1.745,2.741-4.456,4.7-7.076,6.62a113.3,113.3,0,0,0-10.147,8.192,32.475,32.475,0,0,1-5.07,4.231,13.224,13.224,0,0,1-10.484,1.333c-2.756-.824-6.485-3.115-7.563-5.991a3.511,3.511,0,0,1-.127-.434c-.644-3,3.617-5.339,5.8-6.867a83.987,83.987,0,0,0,14.557-12.9,9.676,9.676,0,0,1,2.89-2.486,9.165,9.165,0,0,1,3.048-.681l11.817-1.258a3.332,3.332,0,0,1,1.842.15,2.246,2.246,0,0,1,.749.659,3,3,0,0,1,.18.247C103.7,282.847,103.142,286.621,101.4,289.362Z" transform="translate(-45.711 -113.236)"/><path class="b" d="M101.677,279.926a9.792,9.792,0,0,0-.749.659c-4.119,3.946-8.32,7.818-12.348,11.854a48.388,48.388,0,0,1-6.41,5.466c-6.155,4.111-13.7,5.07-21.192,5.429-.644-3,3.617-5.339,5.8-6.867a83.988,83.988,0,0,0,14.557-12.9,9.676,9.676,0,0,1,2.861-2.509,9.166,9.166,0,0,1,3.048-.681l11.817-1.258a3.332,3.332,0,0,1,1.842.15A2.246,2.246,0,0,1,101.677,279.926Z" transform="translate(-45.721 -113.236)"/><path class="x" d="M225.784,111.189c-.959.861-2.741,1.887-4.216,3a7.855,7.855,0,0,0-2.149,2.142c-.846,1.55-.681,4.2-.891,4.95-1.7,5.991-5.189,8.012-7.848,7.758a4.028,4.028,0,0,1-.914-.18c-4.328-1.393-5.953-6.545-6.964-10.978s-2.029-8.986-3.048-13.479a63.482,63.482,0,0,1-1.977-12.513,21.37,21.37,0,0,1,3-12.131,12.363,12.363,0,0,1,3.654-3.744c2.411-1.535,5.362-1.962,8.237-2.149,5.092-.329,11.337.569,14.228,5.407,2.329,3.879,2.157,10.963,2.321,15.3S229.078,108.2,225.784,111.189Z" transform="translate(-80.095 -61.683)"/><path class="k" d="M225.141,66.165c-.9,3.609-4.2,6.268-7.78,7.294-2.613.749-5.384.749-8.05,1.31s-5.4,1.827-6.65,4.238c-.944,1.82-.9,3.969-.831,5.991l.382,11.09-2.172-2.8a1.43,1.43,0,0,0-.749-.6c-.711-.187-1.221.689-1.333,1.415a6.507,6.507,0,0,0,2.576,6.11,3.654,3.654,0,0,1,1.3,1.183,2.861,2.861,0,0,1,0,1.887l-1.071,4.793c-3-1.363-4.882-4.426-6.14-7.488a56.017,56.017,0,0,1-3.579-15.3,23.235,23.235,0,0,1,.135-8.237,8.81,8.81,0,0,1,4.912-6.245c-1.355-3.055.5-6.784,3.31-8.589s6.3-2.157,9.637-2.336c2.246-.112,4.86,0,7-.711,1.7-.577,2.643-1.9,4.493-1.632C224.182,58.13,225.912,63.117,225.141,66.165Z" transform="translate(-78.329 -57.59)"/><path class="b" d="M232.964,182.634c4.1,1.116,11.592,4.1,15.156,6.417,3.265,2.127,3.362-26.209,3.347-31.713,0-2.943-.165-5.991-1.445-8.619-2.246-4.605-10.783-9.51-13.239-3C233.99,153.116,231.976,182.365,232.964,182.634Z" transform="translate(-88.871 -78.958)"/><path class="y" d="M232.964,182.634c4.1,1.116,11.592,4.1,15.156,6.417,3.265,2.127,3.362-26.209,3.347-31.713,0-2.943-.165-5.991-1.445-8.619-2.246-4.605-10.783-9.51-13.239-3C233.99,153.116,231.976,182.365,232.964,182.634Z" transform="translate(-88.871 -78.958)"/><path class="e" d="M260.036,223.576s7.054,6.305-.7,11.008-3.123,16.624-3.123,16.624h5.167s-3.377-7.166-.21-11.914,4.95-4.845,4.95-9.7-4-8.656-4-8.656Z" transform="translate(-94.428 -98.641)"/><path class="z" d="M225.592,127.662a7.856,7.856,0,0,0-2.149,2.142c-.846,1.55-.681,4.2-.891,4.95-1.7,5.991-5.189,8.012-7.848,7.758l-.914-.18s.479-15.1,4.98-13.913,6.814-.839,6.814-.839Z" transform="translate(-84.119 -75.191)"/><path class="aa" d="M272.266,267.137c-.434,4.193-1.745,8.237-2.621,12.363-2.2,10.416-1.6,21.177-1.812,31.818a2.733,2.733,0,0,1-.292,1.423l-5.242-2.6s-1.108-19.889,1.752-27.287,1.782-20.421,1.782-20.421l-1.565-16.594,2.246.24A30.47,30.47,0,0,1,272.266,267.137Z" transform="translate(-96.25 -104.895)"/><path class="ab" d="M221.511,319.934l-1.5,4.291a6.246,6.246,0,0,1-1.363,2.576,3.407,3.407,0,0,1-1.415.809l-9.735-8.544,10.207-20.675Z" transform="translate(-82.539 -118.094)"/><path class="ac" d="M203.4,325.347c-.232,1.153-2.823,4.6-3.295,5.661-1.453,3.28-3.8,6.23-5.466,9.45a50.313,50.313,0,0,0-3.744,10.9q-3.295,12.925-5.8,26.022c1.5-12.6,3.325-27.789,3.871-31.743.988-7.054,7.241-13.823,7.241-13.823s2.179-5.9-1.558-9.068-11.824-2.831-11.824-2.831h0c.262-.442.524-.846.794-1.221a30.972,30.972,0,0,1,13.591,3.19c.8.419,1.58.846,2.336,1.273C200.18,323.527,203.4,325.347,203.4,325.347Z" transform="translate(-76.343 -123.192)"/><path class="ad" d="M260.221,339.487h0l-6.088-5.2c-3.744-.629-16.557,2.329-16.557,2.329h0a11.689,11.689,0,0,1-.082-2.164c5.526-1.58,14.228-3.542,20.645-2.546l.187.666Z" transform="translate(-90.068 -126.445)"/><path class="b" d="M449.65,193.44C449.777,193.6,449.687,193.567,449.65,193.44Z" transform="translate(-143.36 -91.733)"/><path class="b" d="M420.548,165.683C420.675,165.848,420.585,165.811,420.548,165.683Zm17.313-39.86c.442-6.088-3.385-10.985-8.4-14.467C412.984,99.914,382.23,83.686,380.4,83.05c-1.5-.532-2.883.749-4.066,3.13-4.7,9.48-6.739,36.768-5.946,42.294a8,8,0,0,0-2,1.535s-25.64,15.022-32.9,20.713l-.329.262c-1.745,1.408-2.344,3.9,1.333,6.582,15.029,10.963,35.495,27.19,50.524,38.19a3.845,3.845,0,0,0,5.788-.195l36.273-27.5c.614-.464,1.288-1.078,1.191-1.842C430.215,165.616,436.73,141.429,437.861,125.823Z" transform="translate(-114.257 -63.977)"/><path class="ae" d="M434.353,125.289c.412-5.751-3.2-10.379-7.938-13.666-15.523-10.806-44.615-26.134-46.338-26.741-1.161-.4-2.246.292-3.175,1.76-4.7,9.48-6.74,36.768-5.946,42.294a8,8,0,0,0-2,1.535s-25.64,15.022-32.9,20.713c-.142,1.191.509,2.613,2.539,4.089,14.228,10.356,33.533,25.685,47.723,36.041a4.845,4.845,0,0,0,2.441,1.146,4.625,4.625,0,0,0,3-1.333l34.259-25.969c.584-.442,1.221-1.018,1.131-1.745a1.954,1.954,0,0,0-.973-1.221,2.8,2.8,0,0,0,.389-.21C428,161.045,433.282,140.033,434.353,125.289ZM418,162.94C418.118,163.1,418,163.06,418,162.94Z" transform="translate(-114.823 -64.438)"/><path class="b" d="M449.65,193.44C449.777,193.6,449.687,193.567,449.65,193.44Z" transform="translate(-143.36 -91.733)"/><path class="af" d="M341.565,86.16l56.245,34.476-1.131,1.745L340.15,87.163Z" transform="translate(-85.432 -21.663)"/><path class="b" d="M392.42,91.16l49.617,30.223s-1.977,26.958-5.766,38.512L386.1,128.549Z" transform="translate(-127.398 -66.044)"/><path class="ag" d="M392.42,91.16l49.617,30.223s-1.977,26.958-5.766,38.512L386.1,128.549Z" transform="translate(-127.398 -66.044)"/><path class="ah" d="M319.37,103.384,336.024,93.26l47.364,28.688-18.631,12.91Z" transform="translate(-80.213 -23.446)"/><path class="ai" d="M329.675,121.98l17.575,11.951-10.828,7.451-16.3-12.116Z" transform="translate(-80.401 -30.66)"/><path class="aj" d="M63.14,302.391s11.51-.681,15.725-3.07a39.907,39.907,0,0,0,6.852-4.852l2.935-12.243a7.706,7.706,0,0,0-3.362.277c-1.213.562-6.313,6.185-11.427,10.686C69.617,296.917,63.215,300.07,63.14,302.391Z" transform="translate(-46.28 -114.015)"/><path class="b" d="M175.99,442.271a4.4,4.4,0,0,1-2.246,1.82c-9.031,4.291-19.372,4.62-29.369,4.867a4.494,4.494,0,0,1-1.812-.2c-1.423-.577-1.745-2.246-1.5-3.827,1.176,0,19.26.187,25.647-2.531a66.533,66.533,0,0,0,8.986-4.358l.27.749c.052.262.1.524.142.786A4.493,4.493,0,0,1,175.99,442.271Z" transform="translate(-65.834 -153.17)"/><path class="ak" d="M175.99,442.271a4.4,4.4,0,0,1-2.246,1.82c-9.031,4.291-19.372,4.62-29.369,4.867a4.494,4.494,0,0,1-1.812-.2c-1.423-.577-1.745-2.246-1.5-3.827,1.176,0,19.26.187,25.647-2.531a66.533,66.533,0,0,0,8.986-4.358l.27.749c.052.262.1.524.142.786A4.493,4.493,0,0,1,175.99,442.271Z" transform="translate(-65.834 -153.17)"/></g></svg>